<?xml version="1.0" standalone="no"?>
<!DOCTYPE svg PUBLIC "-//W3C//DTD SVG 20010904//EN"
 "http://www.w3.org/TR/2001/REC-SVG-20010904/DTD/svg10.dtd">
<svg version="1.0" xmlns="http://www.w3.org/2000/svg"
 width="640.000000pt" height="640.000000pt" viewBox="0 0 640.000000 640.000000"
 preserveAspectRatio="xMidYMid meet">
<metadata>
Created by potrace 1.11, written by Peter Selinger 2001-2013
</metadata>
<g transform="translate(0.000000,640.000000) scale(0.100000,-0.100000)"
fill="#000000" stroke="none">
<path d="M3138 6045 c-2 -1 -63 -5 -137 -9 -74 -4 -137 -8 -140 -10 -3 -2 -31
-7 -61 -10 -191 -23 -472 -102 -670 -188 -414 -181 -792 -481 -1059 -841 -347
-468 -524 -1015 -516 -1592 10 -677 261 -1287 732 -1781 52 -55 90 -90 214
-199 80 -72 272 -204 380 -263 217 -119 405 -196 616 -252 67 -18 111 -28 248
-54 27 -5 123 -16 220 -26 79 -7 412 -5 450 3 11 3 52 8 90 12 39 3 100 13
137 21 37 7 80 16 95 19 57 10 249 67 342 102 469 175 898 501 1202 913 191
259 327 547 417 885 26 95 36 146 57 275 21 132 33 472 20 575 -2 17 -6 57 -9
90 -29 301 -139 656 -288 935 -280 522 -738 946 -1273 1177 -80 35 -348 127
-395 137 -21 4 -84 17 -195 41 -57 12 -192 26 -294 31 -64 3 -131 7 -148 8
-18 2 -34 2 -35 1z"/>
</g>
</svg>
